<svg width="489" height="490" viewBox="0 0 489 490" fill="none" xmlns="http://www.w3.org/2000/svg">
<path d="M178.811 188.072C216.546 203.931 264.548 175.641 285.831 125C307.112 74.3631 293.734 20.2633 256 4.40507C218.276 -11.4491 170.266 16.8498 148.984 67.4882C127.701 118.129 141.087 172.218 178.811 188.072ZM344.227 362.697C343.627 360.195 343.04 357.827 342.972 355.975C341.436 316.794 315.722 260.557 248.178 231.041L245.57 229.928C178.667 201.81 121.671 220.882 90.628 248.117C89.5607 249.047 87.6566 250.035 85.6407 251.078C83.2631 252.294 80.884 253.561 78.6624 255.091C55.3941 271.066 37.8637 292.694 29.3174 315.993C20.2295 340.722 22.1975 364.48 34.8123 382.863C39.9114 390.285 46.4981 395.713 54.4054 399.036C70.7105 405.889 89.4984 402.979 111.268 399.613C125.116 397.456 139.416 395.237 154.235 395.305C155.845 395.433 161.94 397.157 171.418 401.14C182.688 405.877 190.36 410.281 191.839 411.605C201.872 422.22 209.692 433.9 217.262 445.183C228.86 462.497 239.813 478.839 256.247 485.746C263.299 488.71 270.917 489.721 278.906 488.768C322.981 483.507 353.066 430.896 345.977 371.5C345.622 368.519 344.937 365.589 344.227 362.697ZM324.311 249.221C362.027 265.072 410.037 236.785 431.32 186.145C452.601 135.507 439.217 81.405 401.5 65.5539C363.762 49.6937 315.755 77.9941 294.473 128.632C273.19 179.273 286.572 233.361 324.311 249.221ZM456.501 249.293C426.258 236.583 389.408 258 372.58 298.04C355.76 338.062 366.261 379.383 396.489 392.087C426.715 404.79 463.595 383.382 480.415 343.36C497.243 303.32 486.741 262.002 456.501 249.293ZM115.833 190.137C132.66 150.098 122.159 108.78 91.9292 96.0751C61.6985 83.3701 24.8298 104.781 8.00258 144.82C-8.81748 184.842 1.68654 226.165 31.9173 238.87C62.148 251.575 99.0129 230.16 115.833 190.137Z" fill="#F4A201"/>
</svg>
