<svg width="489" height="490" fill="none" xmlns="http://www.w3.org/2000/svg"><path d="M178.811 188.072c37.735 15.859 85.737-12.431 107.02-63.072C307.112 74.363 293.734 20.263 256 4.405c-37.724-15.854-85.734 12.445-107.016 63.083-21.283 50.641-7.897 104.73 29.827 120.584Zm165.416 174.625c-.6-2.502-1.187-4.87-1.255-6.722-1.536-39.181-27.25-95.418-94.794-124.934l-2.608-1.113c-66.903-28.118-123.899-9.046-154.942 18.189-1.067.93-2.971 1.918-4.987 2.961-2.378 1.216-4.757 2.483-6.979 4.013-23.268 15.975-40.798 37.603-49.345 60.902-9.087 24.729-7.12 48.487 5.495 66.87 5.1 7.422 11.686 12.85 19.593 16.173 16.305 6.853 35.093 3.943 56.863.577 13.848-2.157 28.148-4.376 42.967-4.308 1.61.128 7.705 1.852 17.183 5.835 11.27 4.737 18.942 9.141 20.421 10.465 10.033 10.615 17.853 22.295 25.423 33.578 11.598 17.314 22.551 33.656 38.985 40.563 7.052 2.964 14.67 3.975 22.659 3.022 44.075-5.261 74.16-57.872 67.071-117.268-.355-2.981-1.04-5.911-1.75-8.803Zm-19.916-113.476c37.716 15.851 85.726-12.436 107.009-63.076 21.281-50.638 7.897-104.74-29.82-120.591-37.738-15.86-85.745 12.44-107.027 63.078-21.283 50.641-7.901 104.729 29.838 120.589Zm132.19.072c-30.243-12.71-67.093 8.707-83.921 48.747-16.82 40.022-6.319 81.343 23.909 94.047 30.226 12.703 67.106-8.705 83.926-48.727 16.828-40.04 6.326-81.358-23.914-94.067Zm-340.668-59.156c16.827-40.039 6.326-81.357-23.904-94.062-30.23-12.705-67.1 8.706-83.926 48.745-16.82 40.022-6.316 81.345 23.914 94.05 30.231 12.705 67.096-8.71 83.916-48.733Z" fill="#F4A201"/></svg>